/* XPM */
static char *result[] = {
/* columns rows colors chars-per-pixel */
"64 64 138 2 ",
"   c black",
".  c #2D140C",
"X  c #2E160E",
"o  c #311209",
"O  c #32130B",
"+  c #39180F",
"@  c #3C2117",
"#  c #232324",
"$  c #421D10",
"%  c #A7100A",
"&  c #A81209",
"*  c #A9130B",
"=  c #AA130B",
"-  c #AA150B",
";  c #A9170B",
":  c #AD180B",
">  c #AB1C0F",
",  c #AB1D0F",
"<  c #AB1A10",
"1  c #AB1D11",
"2  c #AC1D11",
"3  c #94311C",
"4  c #AD2014",
"5  c #AD2114",
"6  c #AD2115",
"7  c #A32D10",
"8  c #AD2C19",
"9  c #AC3F1A",
"0  c #B03F1A",
"q  c #B03F20",
"w  c #DA3C19",
"e  c #DE3F1B",
"r  c #DF3F1B",
"t  c #AA421C",
"y  c #B0441D",
"u  c #B0441F",
"i  c #A94621",
"p  c #B14E25",
"a  c #E0401A",
"s  c #E2431B",
"d  c #E4421B",
"f  c #E1411C",
"g  c #E3411C",
"h  c #E1431C",
"j  c #E2441D",
"k  c #E2451F",
"l  c #E3461E",
"z  c #E4441D",
"x  c #E8441E",
"c  c #E3491F",
"v  c #C05737",
"b  c #E34820",
"n  c #E34921",
"m  c #E34A21",
"M  c #E44E23",
"N  c #E44C24",
"B  c #E44F25",
"V  c #E35128",
"C  c #E5572B",
"Z  c #E55C2F",
"A  c #E66032",
"S  c #E76336",
"D  c #82715A",
"F  c #B07444",
"G  c #B77946",
"H  c #927E65",
"J  c #B8884D",
"K  c #BF8B4E",
"L  c #B4985F",
"P  c #B19560",
"I  c #A08A70",
"U  c #D38E5E",
"Y  c #E69357",
"T  c #EB9558",
"R  c #EB915D",
"E  c #EB9A5B",
"W  c #EB9C5D",
"Q  c #EC9D5E",
"!  c #EC9E5E",
"~  c #EC9E5F",
"^  c #EE9E5F",
"/  c #EE9F5F",
"(  c #EF9F5F",
")  c #C3996F",
"_  c #D69C63",
"`  c #D79A67",
"'  c #DCA76E",
"]  c #D0A870",
"[  c #CFB376",
"{  c #D8B775",
"}  c #DCB57C",
"|  c #DBC47E",
" . c #D9B489",
".. c #CDB291",
"X. c #D2B693",
"o. c #D7BB98",
"O. c #E7BF88",
"+. c #F1BF8E",
"@. c #DDC885",
"#. c #D8C993",
"$. c #E9C88B",
"%. c #F4C292",
"&. c #F2DBA5",
"*. c #F3D2AA",
"=. c #F4D4AD",
"-. c #F4D5AD",
";. c #F6D6AE",
":. c #F8D8B0",
">. c #F7E7BF",
",. c #EDE1C2",
"<. c #F7E7C0",
"1. c #F4E8C7",
"2. c #F7EBC6",
"3. c #F8E9C0",
"4. c #F8E9C3",
"5. c #F8EAC4",
"6. c #F8EAC5",
"7. c #F9EBC5",
"8. c #F9EBC7",
"9. c #F8ECC6",
"0. c #F7EBC8",
"q. c #F9EBC8",
"w. c #F8ECC8",
"e. c #F8ECC9",
"r. c #F8EDC9",
"t. c #F8ECCA",
"y. c #F9EDCA",
"u. c #F8EDCB",
"i. c #F9EDCB",
"p. c #FAECCA",
"a. c #FAEECB",
"s. c #FCEECA",
"d. c #F9EDCC",
"f. c #F9EECC",
"g. c #FAEECC",
"h. c #FEF0CC",
"j. c #FFF1CF",
"k. c None",
/* pixels */
"k.k.k.k.k.k.k.k.k.k.k.k.k.k.k.k.k.k.k.k.k.k.k.k.k.k.k.k.k.k.k.k.k.k.k.k.k.k.k.k.k.k.k.k.k.k.k.k.k.k.k.k.k.k.k.k.k.k.k.k.k.k.k.k.",
"k.k.k.k.k.k.k.k.k.k.k.k.k.k.k.k.k.k.k.k.k.k.k.k.k.k.k.k.k.k.k.k.k.k.k.k.k.k.k.k.k.k.k.k.k.k.k.k.k.k.k.k.k.k.k.k.k.k.k.k.k.k.k.k.",
"k.k.k.k.k.k.k.k.k.k.k.k.k.k.k.k.k.k.k.k.k.k.k.k.k.k.k.k.k.k.k.k.k.k.k.k.k.k.k.k.k.k.k.k.k.k.k.k.k.k.k.k.k.k.k.k.k.k.k.k.k.k.k.k.",
"k.k.k.k.k.k.k.k.k.k.k.k.k.k.k.k.k.k.k.k.k.k.k.k.k.k.k.k.k.k.k.k.k.k.k.k.k.k.k.k.k.k.k.k.k.k.k.k.k.k.k.k.k.k.k.k.k.k.k.k.k.k.k.k.",
"k.k.k.k.k.k.k.k.k.k.k.k.k.k.k.k.k.k.k.k.k.k.k.k.k.k.k.k.k.k.k.k.k.k.k.k.k.k.k.k.k.k.k.k.k.k.k.k.k.k.k.k.k.k.k.k.k.k.k.k.k.k.k.k.",
"k.k.k.k.k.k.k.k.k.k.k.k.k.k.k.k.k.k.k.k.k.k.k.k.k.k.k.k.k.k.k.k.k.k.k.k.k.k.k.k.k.k.k.k.k.k.k.k.k.k.k.k.k.k.k.k.k.k.k.k.k.k.k.k.",
"k.k.k.k.k.k.k.k.k.k.k.k.k.k.k.k.k.k.k.k.k.k.k.k.k.k.k.k.k.k.k.k.k.k.k.k.k.k.k.k.k.k.k.k.k.k.k.k.k.k.k.k.k.k.k.k.k.k.k.k.k.k.k.k.",
"k.k.k.k.k.k.k.k.k.k.k.k.k.k.k.k.k.k.k.k.k.k.k.k.k.k.k.k.k.k.k.k.k.k.k.k.k.k.k.k.k.k.k.k.k.k.k.k.k.k.k.k.k.k.k.k.k.k.k.k.k.k.k.k.",
"k.k.k.k.k.k.k.k.k.k.k.k.k.k.k.k.k.k.k.k.k.k.k.k.k.k.k.k.k.k.k.k.k.k.k.k.k.k.k.k.k.k.k.k.k.k.k.k.k.k.k.k.k.k.k.k.k.k.k.k.k.k.k.k.",
"k.k.k.k.k.k.k.k.k.k.k.k.k.k.k.k.k.k.k.k.k.k.k.k.k.k.k.k.k.k.k.k.k.k.k.k.k.k.k.k.k.k.k.k.k.k.k.k.k.k.k.k.k.k.k.k.k.k.k.k.k.k.k.k.",
"k.k.k.k.k.k.k.k.k.k.k.k.k.k.k.k.k.k.k.k.k.k.k.k.k.k.k.k.k.k.k.k.k.k.k.k.k.k.k.k.k.k.k.k.k.k.k.k.k.k.k.k.k.k.k.k.k.k.k.k.k.k.k.k.",
"k.k.k.k.k.k.k.k.k.k.k.k.k.k.k.k.k.k.k.k.k.k.k.k.k.k.k.k.k.k.k.k.k.k.k.k.                                    k.k.k.k.k.k.k.k.k.k.",
"k.k.k.k.k.k.k.k.k.k.k.k.k.k.k.k.k.k.k.k.k.k.k.k.k.k.k.k.k.k.k.k.k.k.k.k.  :.:.:.Q Q Q : : : : : : Q  .:.I       k.k.k.k.k.k.k.k.",
"k.k.k.k.k.k.k.k.k.k.k.k.k.k.k.k.k.k.k.k.k.k.k.k.k.k.k.k.k.k.k.k.k.k.    :.:.:.:.Q Q Q Q Q : : : : Q :.:.:.:.H       k.k.k.k.k.k.",
"k.k.k.k.k.k.k.k.k.k.k.k.k.k.k.k.k.k.k.k.k.k.k.k.k.k.k.k.k.k.k.k.      :.:.:.:.:.:.:.Q Q Q Q : : : Q :.:.:.:.:.o.D     k.k.k.k.k.",
"k.k.k.k.k.k.k.k.k.k.k.k.k.k.k.k.k.k.k.k.k.k.k.k.k.k.k.k.k.k.k.      ~ ~ ~ :.:.:.:.:.:.:.:.:.Q Q : :.:.:.:.:.:.:.:.X.    k.k.k.k.",
"k.k.k.k.k.k.k.k.k.k.k.k.k.k.k.k.k.k.k.k.k.k.k.k.k.k.k.k.k.k.k.  ~ ~ ~ ~ ~ ~ ~ ~ ~ ~ ~ ~ ~ :.Q Q Q *.-.=.:.:.:.z z ;...    k.k.k.",
"k.k.k.k.k.k.k.k.k.k.k.k.k.k.k.k.k.k.k.k.k.k.k.k.k.k.k.k.k.k.    ~ ~ ~ ~ ~ ~ ~ ~ ~ ~ ~ ~ ~ ~ ~ ~ R :.:.:.:.:.~ ~ z +.%.)   k.k.k.",
"k.k.k.k.k.k.k.k.k.k.k.k.k.k.k.k.k.k.k.k.k.k.k.k.k.k.k.k.k.k.  ! ~ ~ ! z z z z z z z s ! ! ~ ~ ~ ~ ~ ~ ~ ~ ~ ~ ~ z z Q /     k.k.",
"k.k.k.k.k.k.k.k.k.k.k.k.k.k.k.k.k.k.k.k.                    ! ! ~ m z z z z z z s z z ! ~ E ~ ~ ~ Z z z C ~ ~ ~ W z W ^ G   k.k.",
"k.k.k.k.k.k.k.k.k.k.k.k.k.k.k.k.k.k.k.                      z z z z z & & & & & & z z ! ~ ! ~ ~ ~ b l s s ~ ~ Q Q Q Q Q Q     k.",
"k.k.k.k.k.k.k.k.k.k.k.k.k.k.k.k.k.k.    i.i.i.i.i.i.i.i.i.i.i.V z z & & & & & & & z z ! ~ ~ ~ M c z s d s z ~ ~ ~ Q Q Q ( F   k.",
"k.k.k.k.k.k.k.k.k.k.k.k.k.k.k.k.k.    i.i.a.a.a.a.a.g.i.i.i.i.i.z & & & & & & & & z z k z z z z z s z z z z N A ~ ~ ~ ~ ~ Y   k.",
"k.k.k.k.k.k.k.k.k.k.k.k.    k.k.    i.i.i.i.i.i.i.i.t.i.g.i.0.i.i.& & & & & & & z z z g z ! ! z n z z z s z z z B S T z z z   k.",
"k.k.k.k.k.k.k.k.k.k.k.k.k.  k.    i.i.g.t.i.i.i.i.i.i.i.i.t.i.y.i.i.& & & & & z z z z g z ! z z z z z z z z z z z z z z z z   k.",
"k.k.k.k.k.k.k.k.k.k.k.k.k.    _ _ i.1.i.i.i.i.i.i.i.i.i.i.i.p.i.i.i.i.& & & & z z z j s z z z n z z s z z s s s z s s s z z     ",
"k.k.k.k.k.#           k.k.    _ _ i.g.t.i.i.i.i.i.i.i.i.i.i.i.i.t.f.i.i.& & & z z z z z s s d s s s z z z z z z z z z z z z     ",
"k.k.k.#       i.i.i.i.    _ _ _ _ i.i.i.i.i.i.i.i.i.i.i.i.i.i.i.i.t.i.i.i.& & & z z z z z z & z z z z z z z z z z z z z z z     ",
"k.k.k.    i.i.i.h.j.,.i.i._ _ _ _ i.e.i.i.i.y.i.i.i.i.i.i.i.i.i.i.i.i.r.i.v & & z z z & & & & f z z z s z z z z z z z z z z z   ",
"k.k.    i.i.i.d.u.t.i.s.i.i._ _ _ { i.8.i.q.i.i.i.i.i.i.i.i.i.i.i.i.t.d.i.i.2 & & z z & & & & a z z z z & & w & & h z z z z z   ",
"k.k.  i.i.i.u.p.i.i.p.i.i.i.i._ _ _ i.i.i.8.i.i.i.i.i.i.i.i.i.i.i.i.i.i.w.i.i.& & f & & & % & a z z z z & & & & & s z z z z z   ",
"k.    i.i.y.i.i.i.i.i.i.i.t.i.i._ _ _ i.i.w.i.i.i.i.y.i.i.i.i.i.i.i.i.p.d.i.i.1 & & & - & & & f z z z z & & & & s z z z z z z   ",
"k.  i.i.i.i.i.i.i.i.i.i.i.i.i.i.i._ _ O.i.i.i.q.>.t.i.i.y.i.i.i.i.i.i.i.i.9.i.8 & & & & & & z z z z z j z z z & s z z z z z     ",
"k.  i.g.i.i.i.i.i.i.i.i.i.i.i.5.i.i._ _ i.P P P P P <.i.i.i.i.i.i.i.i.i.i.f.i.i.; & & * & & z z z z z z z z z & f e & z z z   k.",
"k.  a.i.i.i.i.i.i.i.i.i.i.i.i.5.i.i._ _ ] P P P P P i.i.i.i.i.i.i.i.i.i.i.f.i.i.< & * & & z z z z z z z z z z & & & & z z z   k.",
"k.  g.t.i.i.i.i.i.i.i.i.i.i.i.4.i.P P P K P & & P P i.i.i.i.i.i.i.i.i.i.i.f.i.i.> & * & & z z z z z z z z z s r & & & z 7     k.",
"k.  g.i.i.i.i.i.i.i.i.i.i.i.i.6.i.P P P J P P & & P i.i.i.i.i.i.i.i.i.i.i.f.i.i.> & * & & z z z z z z z z j z & & & & & 3   k.k.",
"k.  g.i.i.i.i.i.i.i.i.i.i.i.i.t.3.P & P P L P P P P i.i.i.i.i.i.i.i.i.i.i.i.i.i.4 & * & & z z z z z z z z z z & & & & &     k.k.",
"k.  g.i.i.i.i.i.i.i.i.i.i.i.y.i.7.P & & P P P } i.i.i.i.i.i.i.i.i.i.i.i.i.i.i.i.6 & & & & z z z z z z z z z z z & & & &   k.k.k.",
"k.  g.i.i.i.i.i.i.i.i.i.i.i.i.i.y.P P & P #.[ ' i.i.i.i.i.i.i.i.i.i.i.i.i.i.i.i.5 & & & & z z z z z z z z z s z z & &     k.k.k.",
"k.  8.i.i.i.i.i.i.i.i.i.i.i.i.p.i.P P P P @.| $.i.i.i.y.i.i.i.i.i.i.i.i.i.f.i.i., & & & z z z z z z z z z z z z z z     k.k.k.k.",
"k.  i.g.i.i.i.i.i.i.i.i.i.i.i.i.i.e.i.i.i.i.i._ &.i.i.i.i.i.i.i.i.i.i.i.i.f.i.i.< & & & z z z z z z z z z z z z z z   k.k.k.k.k.",
"k.  i.g.i.i.i.i.i.i.i.i.i.i.i.i.p.i.i.y.i.i.i.i._ _ w.i.i.i.i.i.i.i.i.i.i.i.i.i.& & & & z z z z z z z z z z z z z     k.k.k.k.k.",
"k.    i.a.y.i.i.i.i.i.i.i.i.i.i.i.i.p.i.i.i.i.i.i.i._ y.i.i.i.i.i.i.i.i.i._ _ q & & & & z z z z z z z z s z z z z   k.k.k.k.k.k.",
"k.    i.i.i.i.i.i.i.i.i.i.i.i.i.i.i.i.i.i.i.i.i.i.i._ _ _ _ _ i.i.i.i._ _ _ _ & & & & & & z z z z z z z x z z z     k.k.k.k.k.k.",
"k.k.  p i.g.t.i.i.i.i.i.i.i.i.i.i.i.i.i.i.i.2.i.i.i._ _ _ _ _ _ _ _ _ _ p p         = & & z z z z z z z z       k.k.k.k.k.k.k.k.",
"k.k.  p i.i.d.i.p.i.i.i.i.i.i.i.i.i.i.i.i.p.i.i.i.i._ _ _ _ _ _ _ p p p p                                   k.k.k.k.k.k.k.k.k.k.",
"k.k.    p i.i.e.i.i.i.i.i.i.i.i.i.i.i.i.i.i.i.i.i.i._ _ _ _ _ _ p p p p     k.k.k.k.k.k.k.k.k.k.k.k.k.k.k.k.k.k.k.k.k.k.k.k.k.k.",
"k.k.k.    p p i.d.i.p.i.i.i.i.i.i.i.i.i.i.i.i.i.i.i._ _ _ p u 9 p p p     k.k.k.k.k.k.k.k.k.k.k.k.k.k.k.k.k.k.k.k.k.k.k.k.k.k.k.",
"k.k.k.k.    p p i.i.i.i.y.i.i.i.i.i.i.i.i.i.i.i.i.i._ _ p p y 0 p     k.k.k.k.k.k.k.k.k.k.k.k.k.k.k.k.k.k.k.k.k.k.k.k.k.k.k.k.k.",
"k.k.k.k.k.    p p i.i.i.i.i.p.i.i.i.i.i.i.y.p.i.i.i._ _ p p t       k.k.k.k.k.k.k.k.k.k.k.k.k.k.k.k.k.k.k.k.k.k.k.k.k.k.k.k.k.k.",
"k.k.k.k.k.k.    p p i.i.i.i.i.i.i.t.e.6.t.i.i.i.i.i._ p p p       k.k.k.k.k.k.k.k.k.k.k.k.k.k.k.k.k.k.k.k.k.k.k.k.k.k.k.k.k.k.k.",
"k.k.k.k.k.k.k.    p p p i.i.i.i.i.i.i.i.i.i.i.i.i._ _ p p       k.k.k.k.k.k.k.k.k.k.k.k.k.k.k.k.k.k.k.k.k.k.k.k.k.k.k.k.k.k.k.k.",
"k.k.k.k.k.k.k.k.    @ p p p p i.i.i.i.i.i.i.p p p p p p       k.k.k.k.k.k.k.k.k.k.k.k.k.k.k.k.k.k.k.k.k.k.k.k.k.k.k.k.k.k.k.k.k.",
"k.k.k.k.k.k.k.k.k.      p p p p p p ` ` ` U p i p p         k.k.k.k.k.k.k.k.k.k.k.k.k.k.k.k.k.k.k.k.k.k.k.k.k.k.k.k.k.k.k.k.k.k.",
"k.k.k.k.k.k.k.k.k.k.k.          $ p p p p p p + X .       k.k.k.k.k.k.k.k.k.k.k.k.k.k.k.k.k.k.k.k.k.k.k.k.k.k.k.k.k.k.k.k.k.k.k.",
"k.k.k.k.k.k.k.k.k.k.k.k.k.k.k.          O o       k.k.k.k.k.k.k.k.k.k.k.k.k.k.k.k.k.k.k.k.k.k.k.k.k.k.k.k.k.k.k.k.k.k.k.k.k.k.k.",
"k.k.k.k.k.k.k.k.k.k.k.k.k.k.k.k.k.            k.k.k.k.k.k.k.k.k.k.k.k.k.k.k.k.k.k.k.k.k.k.k.k.k.k.k.k.k.k.k.k.k.k.k.k.k.k.k.k.k.",
"k.k.k.k.k.k.k.k.k.k.k.k.k.k.k.k.k.k.k.k.k.k.k.k.k.k.k.k.k.k.k.k.k.k.k.k.k.k.k.k.k.k.k.k.k.k.k.k.k.k.k.k.k.k.k.k.k.k.k.k.k.k.k.k.",
"k.k.k.k.k.k.k.k.k.k.k.k.k.k.k.k.k.k.k.k.k.k.k.k.k.k.k.k.k.k.k.k.k.k.k.k.k.k.k.k.k.k.k.k.k.k.k.k.k.k.k.k.k.k.k.k.k.k.k.k.k.k.k.k.",
"k.k.k.k.k.k.k.k.k.k.k.k.k.k.k.k.k.k.k.k.k.k.k.k.k.k.k.k.k.k.k.k.k.k.k.k.k.k.k.k.k.k.k.k.k.k.k.k.k.k.k.k.k.k.k.k.k.k.k.k.k.k.k.k.",
"k.k.k.k.k.k.k.k.k.k.k.k.k.k.k.k.k.k.k.k.k.k.k.k.k.k.k.k.k.k.k.k.k.k.k.k.k.k.k.k.k.k.k.k.k.k.k.k.k.k.k.k.k.k.k.k.k.k.k.k.k.k.k.k.",
"k.k.k.k.k.k.k.k.k.k.k.k.k.k.k.k.k.k.k.k.k.k.k.k.k.k.k.k.k.k.k.k.k.k.k.k.k.k.k.k.k.k.k.k.k.k.k.k.k.k.k.k.k.k.k.k.k.k.k.k.k.k.k.k.",
"k.k.k.k.k.k.k.k.k.k.k.k.k.k.k.k.k.k.k.k.k.k.k.k.k.k.k.k.k.k.k.k.k.k.k.k.k.k.k.k.k.k.k.k.k.k.k.k.k.k.k.k.k.k.k.k.k.k.k.k.k.k.k.k."
};
