/* XPM */
static char *result[] = {
/* columns rows colors chars-per-pixel */
"64 64 150 2 ",
"   c #040404",
".  c gray2",
"X  c #060606",
"o  c #6E510D",
"O  c #7F6023",
"+  c #9C721A",
"@  c #A77915",
"#  c #8D6A24",
"$  c #9E7721",
"%  c #997831",
"&  c #A47A24",
"*  c #A37C27",
"=  c #A57D27",
"-  c #A67E26",
";  c #A77F26",
":  c #AC7F20",
">  c #AD7F20",
",  c #A87F27",
"<  c #A77F28",
"1  c #947D4E",
"2  c #B38117",
"3  c #B58116",
"4  c #B38118",
"5  c #B4841F",
"6  c #B9851D",
"7  c #BA891E",
"8  c #BC881C",
"9  c #BD891D",
"0  c #BC881E",
"q  c #BD881E",
"w  c #BD891F",
"e  c #BE891F",
"r  c #BE8B1F",
"t  c #A88027",
"y  c #A98128",
"u  c #AA822A",
"i  c #B58520",
"p  c #B68620",
"a  c #B88821",
"s  c #BA8920",
"d  c #BC8820",
"f  c #BF8C20",
"g  c #BF8E21",
"h  c #B38828",
"j  c #B58B2E",
"k  c #BB8F2F",
"l  c #B78E33",
"z  c #BF9334",
"x  c #C18C1F",
"c  c #C08D1F",
"v  c #C18E1F",
"b  c #C08B20",
"n  c #C18E21",
"m  c #C59121",
"M  c #C89421",
"N  c #C99523",
"B  c #CD9924",
"V  c #C9992A",
"C  c #D09B25",
"Z  c #D19C26",
"A  c #D29D26",
"S  c #D49F27",
"D  c #D59F28",
"F  c #D69F28",
"G  c #C29532",
"H  c #C29533",
"J  c #C79935",
"K  c #CB9D36",
"L  c #C89B3A",
"P  c #CA9C38",
"I  c #D19F30",
"U  c #D6A028",
"Y  c #D7A129",
"T  c #DBA629",
"R  c #D8A42A",
"E  c #DDA62A",
"W  c #DBA72C",
"Q  c #D8A52F",
"!  c #DBA72E",
"~  c #DCA82C",
"^  c #DCA82D",
"/  c #DEA92D",
"(  c #DFAA2C",
")  c #D5A232",
"_  c #D7A533",
"`  c #D1A237",
"'  c #DCA831",
"]  c #D2A339",
"[  c #D3A43A",
"{  c #D6A63A",
"}  c #D7A73A",
"|  c #D7A73C",
" . c #D9A73B",
".. c #D9A93C",
"X. c #D8A83D",
"o. c #DBA93C",
"O. c #DAA83D",
"+. c #DAAA3C",
"@. c #E4AB2B",
"#. c #E2AC2B",
"$. c #E0AA2C",
"%. c #E0AB2C",
"&. c #E1AB2C",
"*. c #E1AB2D",
"=. c #E0AB2E",
"-. c #E0AB2F",
";. c #E1AC2D",
":. c #E3AD2C",
">. c #E2AC2D",
",. c #E1AC2F",
"<. c #E2AD2E",
"1. c #E3AD2E",
"2. c #E3AE2E",
"3. c #E4AE2C",
"4. c #E5AF2D",
"5. c #E7AF2D",
"6. c #E6AD2E",
"7. c #E4AE2E",
"8. c #E5AF2F",
"9. c #E0AC31",
"0. c #E2AD30",
"q. c #E3AD30",
"w. c #E4AE30",
"e. c #AB8D55",
"r. c #A38859",
"t. c #A68B58",
"y. c #A68B59",
"u. c #A98C58",
"i. c #A78F65",
"p. c #BEA481",
"a. c #BDA582",
"s. c #C0A580",
"d. c #C1A681",
"f. c #C0A683",
"g. c #D9C8AB",
"h. c #E7D6AD",
"j. c #E5D4AE",
"k. c #E5D5AE",
"l. c #E7D7AE",
"z. c #E6D6AF",
"x. c #E7D6AF",
"c. c #E8D8AF",
"v. c #E6D6B0",
"b. c #E7D7B0",
"n. c #E7D7B1",
"m. c #E9D9B0",
"M. c #E8D8B1",
"N. c #FAF8F8",
"B. c white",
"V. c None",
/* pixels */
"V.V.V.V.V.V.V.V.V.V.V.V.V.V.V.V.V.V.V.V.V.V.V.V.V.V.V.V.V.V.V.V.V.V.V.V.V.V.V.V.V.V.V.V.V.V.V.V.V.V.V.V.V.V.V.V.V.V.V.V.V.V.V.V.",
"V.V.V.V.V.V.V.V.V.V.V.V.V.V.V.V.V.V.V.V.V.V.V.V.V.V.V.V.V.V.V.V.V.V.V.V.V.. . V.V.V.V.V.V.V.V.V.V.V.V.V.V.V.V.V.V.V.V.V.V.V.V.V.",
"V.V.V.V.V.V.V.V.V.V.V.V.V.V.V.V.V.V.V.V.V.V.V.V.V.V.V.V.V.V.V.. V.V.V.V.V.. . V.V.V.V.V.V.V.V.V.V.V.V.V.V.V.V.V.V.V.V.V.V.V.V.V.",
"V.V.V.V.V.V.V.V.V.V.V.V.V.V.V.V.V.V.V.V.V.V.V.V.V.V.V.V.V.V.V.. . V.V.V.. . V.V.V.V.V.V.V.V.V.V.V.V.V.V.V.V.V.V.V.V.V.V.V.V.V.V.",
"V.V.V.V.V.V.V.V.V.V.V.V.V.V.V.V.V.V.V.V.V.V.V.V.V.V.V.V.V.V.V.. . V.V.V.. . V.V.V.V.V.. V.V.V.V.V.V.V.V.V.V.V.V.V.V.V.V.V.V.V.V.",
"V.V.V.V.V.V.V.V.V.V.V.V.V.V.V.V.V.V.V.V.V.V.V.V.V.V.V.V.V.V.V.V.. . V.. . V.V.V.. . . . V.V.V.V.V.V.V.V.V.V.V.V.V.V.V.V.V.V.V.V.",
"V.V.V.V.V.V.V.V.V.V.V.V.V.V.V.V.V.V.V.V.V.V.V.V.V.V.V.V.V.V.V.V.. . . . . V.V.. . . V.V.V.V.V.V.V.V.V.V.V.V.V.V.V.V.V.V.V.V.V.V.",
"V.V.V.V.V.V.V.V.V.V.V.V.V.V.V.V.V.V.V.V.V.V.V.V.V.V.V.V.V.V.V.V.V.. . . . . . . V.V.V.V.V.V.V.V.V.V.V.V.V.V.V.V.V.V.V.V.V.V.V.V.",
"V.V.V.V.V.V.V.V.V.V.V.V.V.V.V.V.V.V.V.V.V.V.V.V.. . . . . . . . . . . . . . . V.V.V.V.V.V.V.V.V.V.V.V.V.V.V.V.V.V.V.V.V.V.V.V.V.",
"V.V.V.V.V.V.V.V.V.V.V.V.V.V.V.V.V.V.V.V.V.. . . . o o o o 7.7.7.7.7.7.7.7.o . . . . . V.V.V.V.V.V.V.V.V.V.V.V.V.V.V.V.V.V.V.V.V.",
"V.V.V.V.V.V.V.V.V.V.V.V.V.V.V.V.V.V.. . . . o o o o ! :.5.5.5.4.4.7.7.6.w.7.7.< o o . . . . V.V.V.V.V.V.V.V.V.V.V.V.V.V.V.V.V.V.",
"V.V.V.V.V.V.V.V.V.V.V.V.V.V.V.V.V.. . J K o o 9.8.4.7.3.7.7.7.7.7.7.7.3.3.3.7.< < < o o . . . . V.V.V.V.V.V.V.V.V.V.V.V.V.V.V.V.",
"V.V.V.V.V.V.V.V.V.V.V.V.V.V.V.V.. . } P o o 7.7.3.7.7.7.7.7.7.7.7.7.7.7.7.7.3.7.7.< < o o o . . V.V.V.V.V.V.V.V.V.V.V.V.V.V.V.V.",
"V.V.V.V.V.V.V.V.V.V.V.V.V.V.V.. . K o o <.7.7.3.1.7.7.7.7.7.7.7.7.7.3.3.3.3.3.7.7.7.< < < o o . . V.V.V.V.V.V.V.V.V.V.V.V.V.V.V.",
"V.V.V.V.V.V.V.V.V.V.V.V.V.V.. . o o 7.B.B.B.B.B.3.1.7.7.7.7.7.7.3.3.7.1.1.2.1.1.7.7.7.< o o o o . . V.V.V.V.V.V.V.V.V.V.V.V.V.V.",
"V.V.V.V.V.V.V.V.V.V.V.V.V.. . ` o 7.B.B.B.B.B.B.B.7.7.7.7.7.7.3.7.B.B.B.B.B.B.B.0.o o 7.o W o o o . . V.V.V.V.V.V.V.V.V.V.V.V.V.",
"V.V.V.V.V.V.V.V.V.V.V.V.. . G o o B.B.B.B.B.B.B.B.B.3.7.7.7.3.7.B.B.B.B.B.B.B.B.B.o < o o >.7.o 5.o . . V.V.V.V.V.V.V.V.V.V.V.V.",
"V.V.V.V.V.V.V.V.V.V.V.V.. l o.o o B.B.B.. . B.B.B.B.3.7.7.7.3.-.B.B.B.B.B.B.B.B.B.N.o < o 7.2.7.7.o o . V.V.V.V.V.V.V.V.V.V.V.V.",
"V.V.V.V.V.V.V.V.V.V.V.. . { O.o 7.B.B.B.. . B.B.B.B.7.7.1.3.7.I B.B.B.B.. . B.B.B.B.o o &.7.7.7.7.:.o . . V.V.V.V.V.V.V.V.V.V.V.",
"V.V.V.V.V.V.V.V.V.V.V.. z ..X.o 7.B.B.B.B.B.B.B.B.) ! :.7.3.7.I B.B.B.B.. . B.B.B.B.o o < 7.7.7.1.7.@.o . V.V.V.V.V.V.V.V.V.V.V.",
"V.V.V.V.V.V.V.V.V.V.. .  .X.X.o 7.;.B.B.B.B.B.B.B.b.b.b.b.q.7.*.N.B.B.B.B.B.B.B.B.B.o o o 7.7.7.7.7.4.o . . V.V.V.V.V.V.V.V.V.V.",
"V.V.V.V.V.V.V.V.V.V.. % +.| X.o 7.6.' B.B.B.B.b.b.b.b.b.b.b.b.Q _ B.B.B.B.B.B.B.B.7.7.h o *.7.7.7.7.7.$.o . . V.V.V.V.V.V.V.V.V.",
"V.V.V.V.V.V.V.V.V.V.. u { X.X.o 7.7.7.b.b.b.b.b.b.b.b.b.b.b.b.b.b.b.b.b.b.7.7.7.7.7.< < o ( 7.7.7.7.7.7.F o . . V.V.V.V.V.V.V.V.",
"V.V.V.V.V.V.V.V.V.V.. $ k [ X.o o 7.7.b.M.b.b.k.b.b.b.b.b.b.b.b.b.b.b.b.b.7.,.7.7./ < < o ( 7.7.7.7.7.7.%.M o . V.V.V.V.V.V.V.V.",
"V.V.V.V.V.V.V.V.V.V.. . , H X.| o 7.b.b.b.b.. b.b.. b.b.b.b.b.b.b.M.b.b.b.7.7.7.7.< < < o ( 7.7.7.7.7.7.7.Z o . . V.V.V.V.V.V.V.",
"V.V.V.V.V.V.V.V.V.V.V.. t j ] L b.b.b.b.z.b.b.b.b.b.b.b.z.b.z.z.b.b.b.b.b.7.7.< < < < < o ( 7.7.7.7.7.7.7.E n o . . V.V.V.V.V.V.",
"V.V.V.V.V.V.V.V.V.V.V.. . y b.b.b.b.b.v.b.b.b.b.b.b.b.b.b.z.b.b.b.b.b.b.b.< < < < < < < o ( 7.7.7.7.7.7.7.;.N 9 o . V.V.V.V.V.V.",
"V.V.V.V.V.V.V.V.V.V.V.. b.b.b.h.b.b.b.b.b.b.b.z.b.b.b.b.b.b.b.b.b.b.b.b.b.- - < < < < = o ( 7.7.7.7.7.7.1.7.A e + X V.V.V.V.V.V.",
"V.V.V.V.V.V.V.V.V.V.. . b.x.n.b.x.b.b.b.b.b.b.b.b.b.b.b.b.b.b.b.b.b.b.b.- < < < < < o o o =.7.7.7.7.7.7.7.7.S w 2 . V.V.V.V.V.V.",
"V.V.V.V.V.V.V.V.V.. . b.b.b.z.b.b.b.b.b.b.b.b.b.b.b.b.b.b.b.b.b.b.b.b.b.; < < < < o o w o *.7.7.7.7.7.7.1.7.Y f 2 . V.V.V.V.V.V.",
"V.V.V.V.V.V.V.V.V.. b.b.b.b.b.b.b.b.b.b.b.b.b.b.b.b.b.b.b.b.b.b.b.b.b.b.* < o o o o 0 w o %.7.7.7.7.7.1.7.7.C 0 4 X V.V.V.V.V.V.",
"V.V.V.V.V.V.V.V.V.. . b.b.b.b.b.b.b.b.b.b.b.b.b.b.b.b.b.b.b.b.b.b.b.b.& o o o w 9 w w w o ^ 7.7.7.7.7.7.:.U v w 3   V.V.V.V.V.V.",
"V.V.V.V.V.V.V.V.V.V.. b.b.b.b.b.b.b.b.b.b.b.b.b.b.b.b.b.b.b.b.j.b.b.b.o o w 9 w w w w w o V 7.7.7.7.$.D B c 0 r o . V.V.V.V.V.V.",
"V.V.V.V.V.V.V.V.V.V.. c.z.b.b.b.b.b.b.b.b.b.b.b.b.b.b.b.b.z.b.b.b.b.b.o 7.7.7.0 0 w w w o o ~ 7.:.S m e 0 0 w o o . V.V.V.V.V.V.",
"V.V.V.V.V.V.V.V.V.V.. . c.z.b.b.b.b.b.b.b.b.b.b.b.b.b.b.b.b.b.b.b.b.o o 7.7.7.7.0 q w w 9 o o / T x 0 9 w w 6 o . X V.V.V.V.V.V.",
"V.V.V.V.V.V.V.V.V.V.V.. . m.c.b.b.b.b.b.b.b.b.b.b.b.b.b.b.b.b.b.o o o 7.7.7.7.7.7.7.0 w w 0 o o o a p p i > o o . V.V.V.V.V.V.V.",
"V.V.V.V.V.V.V.V.V.V.V.V.V.. . l.c.b.b.b.b.b.b.b.b.b.v.b.b.b.b.o o 7.7.1.7.1.7.7.7.7.7.0 w w 0 5 o o o o o o o . . V.V.V.V.V.V.V.",
"V.V.V.V.V.V.V.V.V.V.V.V.V.V.V.. . o o o o o o o o o o o o o o 7.7.7.:.7.7.7.7.:.7.7.7.g w w w w 9 s w w w w # . V.V.V.V.V.V.V.V.",
"V.V.V.V.V.V.V.V.V.V.V.V.V.V.V.V.. o 0 7.7.7.7.7.7.7.7.7.7.7.7.7.7.7.7.7.7.7.7.7.1.7.7.7.w w w w d w w w w w @ . V.V.V.V.V.V.V.V.",
"V.V.V.V.V.V.V.V.V.V.V.V.V.V.V.V.. 0 0 7.7.7.7.7.7.7.7.7.7.7.7.7.7.7.7.7.7.7.7.7.7.1.7.7.w w 0 w w w w w w w w . . V.V.V.V.V.V.V.",
"V.V.V.V.V.V.V.V.V.V.V.V.V.V.V.V.. 0 7.7.7.7.7.7.7.7.7.7.1.7.7.7.7.7.7.7.7.7.7.7.7.7.1.7.7.w w 0 w w w w w w w O . V.V.V.V.V.V.V.",
"V.V.V.V.V.V.V.V.V.V.V.V.V.V.V.. . 0 7.7.7.7.7.7.7.7.7.7.7.7.7.7.7.7.7.7.7.7.7.7.7.7.7.7.7.R w 0 w w w w w w w w . V.V.V.V.V.V.V.",
"V.V.V.V.V.V.V.V.V.V.V.V.V.V.V.. 0 0 7.7.7.7.7.7.7.7.7.7.7.7.7.7.7.7.7.7.7.7.7.7.7.7.7.7.7.7.w w 0 w w w w w w w . V.V.V.V.V.V.V.",
"V.V.V.V.V.V.V.V.V.V.V.V.V.V.. . 0 0 7.7.7.7.7.7.7.7.7.7.7.7.7.7.7.7.7.7.7.7.7.7.7.7.7.7.7.7.7.w 0 w w w w w w w . V.V.V.V.V.V.V.",
"V.V.V.V.V.V.V.V.V.V.V.V.V.V.. . 0 7.7.7.7.7.7.7.7.7.7.7.7.7.7.7.7.7.7.7.7.7.7.7.7.7.7.7.7.7.7.w 0 w w w w w w w X V.V.V.V.V.V.V.",
"V.V.V.V.V.V.V.X . . X V.V.V.. 0 0 7.7.7.7.7.7.7.7.7.7.7.7.7.7.7.7.7.7.7.7.7.7.7.7.7.7.7.7.7.7.w w w w w d w w o . V.V.V.V.V.V.V.",
"V.V.V.V.V.V.V.X 0 0 . . . . . 0 0 7.7.7.7.7.7.7.7.7.7.7.7.7.7.7.7.7.7.7.7.7.7.7.7.7.7.7.7.7.7.7.w 9 w w w w o o . V.V.V.V.V.V.V.",
"V.V.V.V.V.V.V.. 0 0 0 q 0 0 o o 7.7.7.7.7.7.7.7.7.7.7.7.7.7.7.7.7.7.7.7.7.7.7.7.7.7.7.7.7.1.6.7.o w w w o o o . . V.V.V.V.V.V.V.",
"V.V.V.V.V.V.V.  . 0 0 0 0 0 o o 7.7.7.7.7.7.7.7.7.7.7.7.7.7.7.7.7.7.7.7.7.7.7.7.7.7.7.7.1.7.7.o o o : o o o o . V.V.V.V.V.V.V.V.",
"V.V.V.V.V.V.V.V.. . 0 0 0 0 o o o 7.7.7.7.7.7.7.7.7.7.7.7.7.7.7.7.7.7.7.7.7.7.7.7.7.7.7.7.#.o o g.o o g.g.g.o . . . . V.V.V.V.V.",
"V.V.V.V.V.V.V.V.V.. . . 0 0 0 o o :.7.7.7.7.7.7.7.7.7.7.7.7.7.7.7.7.7.7.7.7.7.7.7.7.7.7.7.7.o g.d.d.o g.f.d.o o o o X V.V.V.V.V.",
"V.V.V.V.V.V.V.V.V.V.V.. . 0 0 0 o o 7.7.7.7.7.7.7.7.7.7.7.7.7.7.7.7.7.7.7.7.7.7.7.7.7.7.&.7.o g.d.p.a.d.s.d.o d.d.d.. V.V.V.V.V.",
"V.V.V.V.V.V.V.V.V.V.V.V.. . . 0 o o :.7.1.7.7.7.7.7.7.7.7.7.7.7.7.7.7.7.7.7.7.7.7.7.7.7.7.o g.g.s.d.d.d.d.d.s.d.d.d.. V.V.V.V.V.",
"V.V.V.V.V.V.V.V.V.V.V.V.V.V.. . o o o 6.7.7.7.7.7.7.7.7.7.7.7.7.7.7.7.7.7.7.7.7.7.7.7.:.7.o g.s.s.d.d.d.d.s.d.d.d.. V.V.V.V.V.V.",
"V.V.V.V.V.V.V.V.V.V.V.V.V.V.V.V.. . o o o o 7.7.7.7.7.7.7.7.7.7.7.7.7.7.7.7.7.7.7.7.7.7.7.o g.s.d.d.d.d.d.d.d.d.. . V.V.V.V.V.V.",
"V.V.V.V.V.V.V.V.V.V.V.V.V.V.V.V.V.V.V.. . o o 7.7.7.7.7.7.7.7.7.7.7.7.0 0 7 r c b o o o o o g.s.d.d.d.s.d.d.d.. . V.V.V.V.V.V.V.",
"V.V.V.V.V.V.V.V.V.V.V.V.V.V.V.V.V.V.V.V.. . o o 7.7.7.7.7.7.7.7.7.w w w w w r 8 o o . . o g.g.s.d.d.d.d.d.d.. . V.V.V.V.V.V.V.V.",
"V.V.V.V.V.V.V.V.V.V.V.V.V.V.V.V.V.V.V.V.V.. . o o 0 0 9 w 9 9 9 w w e r o o o o o . . . . g.g.s.d.d.d.d.d.. . V.V.V.V.V.V.V.V.V.",
"V.V.V.V.V.V.V.V.V.V.V.V.V.V.V.V.V.V.V.V.V.V.. . o o o o o o o o o o o o o . . . . V.V.V.. . d.d.d.d.d.. . . V.V.V.V.V.V.V.V.V.V.",
"V.V.V.V.V.V.V.V.V.V.V.V.V.V.V.V.V.V.V.V.. . . d.d.d.d.i.t.e.u.y.r.1 . . . V.V.V.V.V.V.V.V.. . d.d.. . . V.V.V.V.V.V.V.V.V.V.V.V.",
"V.V.V.V.V.V.V.V.V.V.V.V.V.V.V.V.V.V.V.. . d.d.d.d.d.d.d.d.d.d.d.d.d.d.. V.V.V.V.V.V.V.V.V.V.V.. . . V.V.V.V.V.V.V.V.V.V.V.V.V.V.",
"V.V.V.V.V.V.V.V.V.V.V.V.V.V.V.V.V.V.. . d.d.. . . d.d.d.d.d.d.d.d.d.d.. . V.V.V.V.V.V.V.V.V.V.V.V.V.V.V.V.V.V.V.V.V.V.V.V.V.V.V.",
"V.V.V.V.V.V.V.V.V.V.V.V.V.V.V.V.V.V.. . . . . . . . d.g.g.. . . . d.d.d.. V.V.V.V.V.V.V.V.V.V.V.V.V.V.V.V.V.V.V.V.V.V.V.V.V.V.V.",
"V.V.V.V.V.V.V.V.V.V.V.V.V.V.V.V.V.V.V.V.V.V.V.V.V.. . . . . . V.. . . . . V.V.V.V.V.V.V.V.V.V.V.V.V.V.V.V.V.V.V.V.V.V.V.V.V.V.V."
};
