/* XPM */
static char *_8025917d7b54f92a0dbd86840cc3658FAPIouWgkOe4Ad6S[] = {
/* columns rows colors chars-per-pixel */
"64 64 6 1 ",
"  c black",
". c #222034",
"X c #8F563B",
"o c #D9A066",
"O c #EEC39A",
"+ c white",
/* pixels */
"                                                                ",
" ooooooooooo oooooooooooooooo ooooooooooooo ooooooooooooooooooo ",
" ooooooooooo oooooooooooooooo ooooooooooooo ooooooooooooooooooo ",
" oooOOOOOooo ooooooooOOOooooo oooooooooooo  ooooooooooooooooooo ",
" oooOOOOOooo oooooOOOoooooooo oooooooooooo oooooooOOOOOOOOOOooo ",
" ooooooooooo oooooooooooooooo oooooOoooooo oooooooOOOOOOOOOOooo ",
" ooooooooooo oooooooooooooooo oooooOOOoooo oooooooooooooooooooo ",
" ooooooooooo oooo             ooooooOOOooo oooooooooooooooooooo ",
"                  XXXXXX XXXX ooooooOOoooo oooooooooooooooooooo ",
" ooooooooooooooooooooooo ooooooooooooooooo                      ",
" ooooooooooooooooooooooo ooooooooooooooooo oooooooooooooooooooo ",
" ooooooooooooooooooooooo ooooooooooooooooo ooooooOOoooooooooooo ",
" oooOOOOOOOOOOOOOooooooo ooooooooooooooooo ooooOOOOOOOOOOOOOooo ",
" oooOOOOOOOOOOOOOOOooooo                   oooOOOOOOOOOOOOOOooo ",
" oooooOOoOOOOOOOOOOooooo Xooooooooooo ooooooOOOOOOOOOOOOOOOOooo ",
" oooooooOOOOOOOOOOoooooo Xooooooooooo ooOOOOOOOOOOOOOOOOOOOOooo ",
" ooooooooooooooooooooooo Xooooooooooo ooOOOOOOOOOOOOOOOOOOOOooo ",
" ooooooooooooooooooooooo XooOOOoooooo ooOOOOOOOOOOOOOOOOOOOOooo ",
"                         XooOOOOOoooo ooOOOOOOOOOOOOOOOOOOOOooo ",
" XXXXXXXXXXXXXXXX XXXXXXXXoOOOOOOoooo oooOOOOOOOOOOOOOOOOOOOooo ",
" oooooooooooooooo oooooooooOOOOOOOooo oooOOOOOOOOOOOOOOOOOOoooo ",
" oooooooooooooooo oooooooooOOOOOOOooo oooooOOOOOOOOOOOOOOOOoooo ",
" oooooooooooooooo  oooooooOOOOOOOOooo oooooooooooOOOOOOOOOOoooo ",
" ooooooooooooooooo ooOOOOOOOOOOOOOooo  ooooooooooooOOOOOOOooooo ",
" oooOOOOOOoooooooo ooOOOOOOOOOOOOOOooo oooooooooooooooooooooooo ",
" oooOOOOOOoooooooo ooOOOOOOOOOOOOOOooo            ooooooooooooo ",
" oooOOOOOOOooooooo ooOooOOOOOOOOOOOoooooo ooooooo               ",
" ooOOOOOOOOOoooooo ooOOOOOOOOOOOOOOoooooo oooooooooooooo oooooo ",
" ooOOOOOOOOOOooooo ooooOOOOOOOOOOOooooooo oooooooooooooo oooooo ",
" ooOOOOOOOOOOOoooo oooooooooooooooooooooo oooooooooooooo  ooooo ",
" ooOOOOOOOOOOOOooo oooooooooooooooooooooo ooooo++++++oooo ooooo ",
" oooOOOOOOOOOOOooo  oooooooooooooooooooo  ooooo++++++oooo ooooo ",
" oooOOOOOOOOOOOoooo                 oooo ooooooooo+++oooo ooooo ",
" oooooooooOOOOOooooooooo Oooooooooo      oooooooooooooooo ooooo ",
" ooooooooooooOOooooooooo OooooooooooooooooooooOOOoooooooo ooooo ",
"...............ooooooooo OooooooooooooooooooooOOOoooooooo ooooo ",
"             ..ooooooooo OooooooooooooooooooooOOOoooooooo ooooo ",
" oooooooooooo..ooooooooo OooooooooooooooooooooOOOoooooooo ooooo ",
" oooooooooooo .ooooooooo OooooooooooooooooooooOOOoooooooo ooooo ",
" oooooooooooo .oooooooo  OooooooooooooooooooooOOOoooooooo ooooo ",
" oooooooooooo           OOooooooooooooooooooooOOOoooooooo ooooo ",
" oooooooooooo Xoooooooo OoooooooooooooooooooooOOOooooooo  ooooo ",
" oooooooooooo Xoooooooo OoooooooooooooooooooooOOOooo     oooooo ",
" oooooooooooo Xoooooooo Oooooooooooooooooooooooooooo oooooooooo ",
" oooooooooooo Xoooooooo Ooooooooooooooooooooooooooo  oooooooooo ",
" oooooOoooooo Xoooooooo OOooooooooooooooooooooooooo ooooooooooo ",
" oooooOOOoooo Xoooooooo OOooooooooooooooooooooooooo ooooooooooo ",
" oooooOOOoooo Xoooooooo  OOOOOoooooooooooooooooooo  ooooooooooo ",
" oooooooooooo Xoooooooo     OOoooooooooooooooooooo oooooooooooo ",
" oooooooooooo Xoooooooooo   OOOOOooooooooooooooooo oooooOoooooo ",
" oooooooooooo Xoooooooooooo     Ooooooooooooooooo  oooooOoooooo ",
" oooooooooooo Xoooooooooooooooo Oooooooooooooooo  ooooooOoooooo ",
"              Xoooooooooooooooo OOOOOOOOOOOOOo   ooooooOOoooooX ",
" XXXXXX XXXXXXXoooOoooooooooooo      OOO       ooooooooOOoooooX ",
" XXXXXX XXXXXXXoooOOOoooooooooo oooo     ooooo oooooooOOOoooooX ",
" Xooooo oooooooooooOOOooooooooo oooooooooooooo ooooooOOOOoooooX ",
" Xooooo oooooooooooOOOOoooooooo oooooooooooooo ooooOOOOOOoooooX ",
" Xooooo ooooooooooooOOOoooooooo oooooooooooooo oooOOOOOOOooooXX ",
" Xooooo oooooooooooooOOOooooooo oooOOOoooooooo ooOOOOOOOOooooXX ",
" Xooooo    ooooooooooooOooooooo oooOOOOOOOOOoo ooOOOOOOOoooooXX ",
" Xooooooooo     .Xooooooooooooo XoooooOOOOOOoo ooooOOOoooooooXX ",
" XXXXXXXXXXXXXXX.XXXooooooooooo XXoooooooooooo oooooooooooooXXX ",
" XXXXXXXXXXXXXXX.XXXXXXXXXXXXXoXXXXooooooooooo ooooooooooooXXXX ",
"                                                                "
};
