/* XPM */
static char *result[] = {
/* columns rows colors chars-per-pixel */
"64 64 245 2 ",
"   c #01749D",
".  c #027A9E",
"X  c #026893",
"o  c #0175A2",
"O  c #017CA4",
"+  c #007DAA",
"@  c #01819D",
"#  c #0183A3",
"$  c #028BA5",
"%  c #0284AB",
"&  c #028BAC",
"*  c #088BAD",
"=  c #0889A6",
"-  c #0391A4",
";  c #0293AD",
":  c #0A94AB",
">  c #0299AD",
",  c #0C9AAD",
"<  c #0B93A6",
"1  c #1B9BAD",
"2  c #1696AD",
"3  c #0286B1",
"4  c #028DB2",
"5  c #018DBA",
"6  c #0B8BB4",
"7  c #0294B4",
"8  c #0A94B5",
"9  c #019BB4",
"0  c #0A9CB4",
"q  c #0295BA",
"w  c #0B95BA",
"e  c #029CBB",
"r  c #0B9BBC",
"t  c #139DB4",
"y  c #119CBB",
"u  c #1698B8",
"i  c #02A2B6",
"p  c #0BA2B5",
"a  c #02A3BC",
"s  c #0BA4BC",
"d  c #01AABE",
"f  c #0CABBC",
"g  c #0AAAB7",
"h  c #14A2B4",
"j  c #1BA3B4",
"k  c #13A4BC",
"l  c #1BA6BB",
"z  c #13AABC",
"x  c #1AABBC",
"c  c #0FB1BE",
"v  c #18B0BE",
"b  c #11A2AE",
"n  c #23A1AF",
"m  c #24ABBD",
"M  c #2BABBC",
"N  c #22A4B8",
"B  c #24B1BE",
"V  c #33B1BF",
"C  c #37AFBD",
"Z  c #49AFBB",
"A  c #029DC2",
"S  c #0A9DC3",
"D  c #0196C1",
"F  c #139BC2",
"G  c #329FC0",
"H  c #02A4C3",
"J  c #0BA4C3",
"K  c #02ABC4",
"L  c #0BACC4",
"P  c #02A5C9",
"I  c #0CA4C9",
"U  c #02ACCB",
"Y  c #0BACCA",
"T  c #13A4C3",
"R  c #1CA4C3",
"E  c #14ABC3",
"W  c #1CACC4",
"Q  c #13ACCA",
"!  c #1CADCB",
"~  c #16A7CB",
"^  c #02B2C6",
"/  c #0CB2C5",
"(  c #02B3CB",
")  c #0BB3CB",
"_  c #02B9CD",
"`  c #0CBACC",
"'  c #01B9C7",
"]  c #13B3C5",
"[  c #1CB3C4",
"{  c #13B4CB",
"}  c #1CB5CC",
"|  c #13BACC",
" . c #1BBBCD",
".. c #19B9C7",
"X. c #03AED1",
"o. c #0EAED2",
"O. c #16ACD0",
"+. c #03B4D2",
"@. c #0BB5D3",
"#. c #04BAD4",
"$. c #0BBBD3",
"%. c #02BEDA",
"&. c #0CBEDA",
"*. c #14B5D2",
"=. c #1CB4D2",
"-. c #13BBD4",
";. c #1CBBD3",
":. c #1BBDD8",
">. c #12BCDA",
",. c #24AEC3",
"<. c #29ADC5",
"1. c #24A8C9",
"2. c #35ADC3",
"3. c #24B3C5",
"4. c #2BB4C5",
"5. c #24B4CA",
"6. c #2BB4CB",
"7. c #23BBCC",
"8. c #2CBCCC",
"9. c #27BAC5",
"0. c #34B3C3",
"q. c #35BAC6",
"w. c #35B5CB",
"e. c #3AB7C9",
"r. c #33BDCD",
"t. c #3BBCCC",
"y. c #3BB8C5",
"u. c #23B5D1",
"i. c #2DB7D2",
"p. c #23BCD3",
"a. c #2BBCD2",
"s. c #22BBDB",
"d. c #33BDD2",
"f. c #3ABDD2",
"g. c #34BAD4",
"h. c #43BCCC",
"j. c #49B9C6",
"k. c #50BACA",
"l. c #41BDD2",
"z. c #0CC4DA",
"x. c #06C2DB",
"c. c #1CC1D4",
"v. c #1CC5DA",
"b. c #15C4D9",
"n. c #1AC0CE",
"m. c #28C0CD",
"M. c #33C1CE",
"N. c #3CC2CE",
"B. c #24C2D3",
"V. c #2BC1D4",
"C. c #24C3D9",
"Z. c #2CC3DA",
"A. c #24CADB",
"S. c #34C2D3",
"D. c #3BC3D3",
"F. c #34C3DA",
"G. c #3CC6D9",
"H. c #34CADD",
"J. c #3ECCDC",
"K. c #3CC8D7",
"L. c #2BD1DD",
"P. c #0CC8E1",
"I. c #15CBE1",
"U. c #18D3E7",
"Y. c #28CDE3",
"T. c #39CDE2",
"R. c #2BD3E5",
"E. c #37D4E5",
"W. c #45C2CD",
"Q. c #4BC3CD",
"!. c #53C3CD",
"~. c #5BC1CD",
"^. c #43C4D4",
"/. c #4AC5D4",
"(. c #42C9D5",
"). c #4CC9D6",
"_. c #44C5D9",
"`. c #4CC6DA",
"'. c #43CBDC",
"]. c #4DCBDB",
"[. c #53C6D4",
"{. c #5CC5D4",
"}. c #54CAD5",
"|. c #5BCAD6",
" X c #54C6D9",
".X c #54CCDB",
"XX c #5CCCDA",
"oX c #5AC5D9",
"OX c #48D2DE",
"+X c #56D1D9",
"@X c #6AC9CD",
"#X c #7ACCC8",
"$X c #63CBD3",
"%X c #63CDDB",
"&X c #6BCDDB",
"*X c #6ACAD4",
"=X c #72CED9",
"-X c #72CDD5",
";X c #64D2DC",
":X c #6BD1DC",
">X c #63D0D7",
",X c #75D3DC",
"<X c #7BD3DC",
"1X c #70D9DF",
"2X c #45CCE0",
"3X c #56CCE3",
"4X c #44D3E3",
"5X c #48D7E7",
"6X c #5DD4E4",
"7X c #58D8E6",
"8X c #68D8E7",
"9X c #73D3E1",
"0X c #7BD5E1",
"qX c #7FDAE2",
"wX c #76DBE9",
"eX c #75E0EA",
"rX c #6BE4ED",
"tX c #83D3DC",
"yX c #8AD6DD",
"uX c #8AD8DF",
"iX c #84D8DC",
"pX c #93D9DE",
"aX c #A2DCDD",
"sX c #84D6E2",
"dX c #84DAE3",
"fX c #8CDBE4",
"gX c #8AD6E3",
"hX c #93DBE3",
"jX c #9ADDE4",
"kX c #96DBE6",
"lX c #A3DEE7",
"zX c #9AE2E8",
"xX c #80F3F8",
"cX c #ACE3E5",
"vX c #ACE4EB",
"bX c #A4E1E7",
"nX c #BCEAED",
"mX c #B7E6E8",
"MX c #B2EBF5",
"NX c #C4EBED",
"BX c #CBEDEF",
"VX c #C8ECF2",
"CX c #DAF2F7",
"ZX c #D1F4F4",
"AX c #EFF8F7",
/* pixels */
"@ . 2 < * - - z i 3.1 # @ $ 2 < m j.9 p n l f r.3.t.q.h t E s j.V 2 1.Q q & ) T # e U P a Y Q 7 ~ e J 9 t T & # $ s s 9 9 9 ; % ",
"- $ < h > p a h M h j n N 0 0 m V t.9 i p , ; V m a j R f Y 8.6.s N 9.T H e 9 J * 4 a r r 8 4.W ! k y 7 a r : 7 r $ $ s w   < 7 ",
"2 t b , : : u $X<XM > - j n p q.j.C p 4.~.j $ 1 h.r > ; , , ~.N e 9 T *.E e q S 6.w q ! W q 7.h i H K e e 7 9 J r @ @ * * 0 & o ",
"- > z < $ 9 : h 4.[ 3.; [ 0.z : 7 a a 5.fX3.p 7 8.f.9 4 8 9 h.e.i W W } Y e H e H E J q z W S 4 e 9 Y E e H i.! 7 S o   : l * ; ",
": g , $ f - < j y.N x E k ] <Xj.i E g p 4.p x 4.H V.4.[ } P 8.f.} ( H H P X.>.P @.X.K A A u.) q q /.l.a r 0 W 9 S ) q 7 9 7 # $ ",
"> p t : h 1 l 7.3.D.W.j z s Q.3.f L 5.5.L d j k.V y.l C v Q.x L N.9Xd.| } U >.H ~ :.p.P U A e J <.e Z.8.7 4 7 . 7 U J Q P I 4 & ",
"t $ 9 , ; : < p x 3.] i <.1 t M 4.<.m y.{ L L H z x z ..L Z.{ H U 9X0X6.4.) *.K A o.2XP P a.1.:.<.% 8 E H q 7 q 6 e a.T r & s p.",
"< 1 p c 0 9 d g b : 0 9 j Z n y.t.,Xf e ] q.[.6.K { Z.)..X/ i a H n.} e d ) +.X.P A @.A A =.$.X.5 3 % 4 r & q J ~ 0 J 4 J q 4 y ",
"M l a c l , 0 ] g i 4.h 3.N 0 e 9 z !.l > 9 7.h.a d ^ ^ fX^.i a H Q.^.| ) ) 6.5.e A O.J q U U Y { @.U *.:.8 H P $.Q w e J H e 9 ",
"; V z 3.3.l z a a L 8.v 4.j.k 9 8 ; e.^.a a 8.t.i H L U K.%XU H K dX0X' 7.{ { 7.A e E a.D =.O.>.>.U P A X.I 8 w s e 8 s J y q A ",
"; h.v > h c w.0.r 5.|.[.a ..jXt > a { D.} { fX`.) { U K K .X .^ #.9X/.K / ;._ >.*.#.&.Y 5 5 J K P q Y ~ Y E.U Q u 5.7 7 s s # % ",
"B l ; 9 9 d f (.9 7 i 5...L `.t.3.7.L H 7.r..X) U r.h.d.8.,X{.^ K D.7.Y ) ) U L I.( *.T S 5 q I P q A Y c.-.^ :.D Y s 4 q ~ e q ",
"z z a g t 0 9 3.4.m l 0 E z 6.s s 3.r.9...K 7..XXXXX<X,XS.^.Q.f H 4.8.^ ) G.| ! @.@.@.o.T.P i.s.*.O.q q e o.Z.:.U 9 I q o o 5 q ",
"j t 0 [ D.h.!.l m z l R f E $Xp 7 L D.8.V.S.c.).0X&X,X;.V.;XK._ _ ' | ( ( 3X3X>.+.z.s.T.*.H a.P e v.s.A =.d.J I <.! Y U q u e A ",
", l : ,.W.1X^.i [  .i E |.D.,X8.L  .).D.M.a.U } XXdXdX( H 7.F.( ( #.;.p.L K U H A @.>.J A P =.O.5 A >.Y J p.U q 3 w i.>.P 8 Y H ",
"> E ;Xz m $XN.H [ M.L | jXjX*X5.0 a t.,.d d d 9 H ;.|.;.L P G.qX-._ m./.(.W L A A U #.>.A D A O._.I H q q D e A q 3 T A.! 4 H x.",
"m i M.%Xg 4.z e d M./ d | ] 8.4.q t.}.9 0 a H ..8.XXNXfX`.7.V.hX0X_.p.d.} i.N.~ X.@.e U A 5 q I 7XG.Y I U #.I & S R e ) U u.w 4 ",
"M 7 i ` i 7.p 9 d ] d H  .S.V.D.9 _./.9 9 U { *.{ U wXBX[./.) ;..XjXu.P H H } 0XA P U P U =.~ O.X.:.S U ) P :.1.q A q 7 & t R   ",
"q.; L >X5.r.Q.[ V.L a L [ / / .Xd..X[.E } c.' H P K ) B.D.9X' K ;.XXG.S.r.L ;.mXh.5 P P @.T.Y D A O.H A *.A { rXJ A A 4 q & 8 7 ",
"[ ] i 3.q.E } g g ] i f K 7.4.L `.&X9X/.7.D.^.D.(./.;.( ` 0X*.K V.|.^ ^.f.p.a.D.qXZ.A e 4 *.U.=.w.H s.A A e 5 f.Q A e w A U 7 q ",
"c d e 9 L 9 0 K K / e i K / 8.f | <XmX^.D.iX^.;..X9X|.9XfX_.K ' G.nXhXP a e { Y H *.*.w 3 5 U R.xX3XO.a.Y U O.P ;.e e r J K I 7 ",
"Q.j.d 3.m.9.W 3.u.k.d a ^ 7.f H d 7.S.).:XXX( / ( / ( { a.:X%Xp.G.<XdXl.e `.} d.U P.v.~ O.U e Y Y.H.^ Q Y Q p.I A U Y H R Q H H ",
"<XB 9 7.M.qXN.7.^.$X9 9 9 / M.K H ` H ) ;.^ K ' H K | K P V.%Xm.H _ ( S./ d.%X}.2XR.I.S O.x.U P X.U +.+.U I A ;.4 % H ! r 3 4 q ",
"-Xk.d / D.XXg a ..^.9 9 d H V.D.( B.d.K ` p.` ^ L ( ` P d z./ ` G.^.V.} D.{ U Y G.X.X.U A :.A A 5 +.U e Y T 7 S Q 4 q g.*.k 4 r ",
"L dX0.9 a } ] d L (.a i d ) ^ ) (  .:X8.) 8.(.7.H ' _ U p.b.H K .XdXF.^.7.a.) k. X&.+.#.A s.Y u.i.A ) q S } 7 q =.I.X.) q r r q ",
"d ).9.H d d ^ K 8.M.5.t.:X] d K Y ' D.l.L K ( ).).-.n.V.].fXXX( K V..X_ c./.( $.XX6XU #.U e F.wX6Xw D U P Y R 5 4 L ) P q 4 O.y ",
"^ W.N.}.}...i ! |.( d 4.NX7.d d./.( [.[.m.V.7. .K.jXa.( ^ ) `.:X] ) zX:X_ _.{ #.wXT.U &.&.D J T.@.g.J i.q q I 8 O % *.5 r ;.R.G.",
"/ M.d 7.0XiX] 7.%X| i J ! ^.%X}./ ^ a.f H L p.}.;X<XV.H a d H `.V.;..XkXdX0X'.| G.J A X.%.D + S 8X6XH f.S 7 % R R 3 T R q Q a q ",
"N.d 5.t.] / ^.7.}.dX!.9 7 5.].^ K ( D.H d i a @.zX>X-.H d H d 7.G.( c.M.K.].{ U :..X1.=.p.i.w } 2XD 4 R w.5 q 5 _.w + E H e J 4 ",
"M.M.3.s d a :Xl 7 H }.).5.^.) ' ^ c.r.A a H d K dXsXL H K a d `.=.' ^ K L F.8.K K A.MXZXH.*.G.T.@.5 q 5 i.I q 4 R bX8 3 I % r F ",
"' }.k.#Xa 4.~.7 a a a p.zX^.H ^ ` 9Xh.i a H d | nXiX' K K K 3X^.K $.Y H H ..D.K U %.I.>.P P P A 2X1.7 5 r 6.3 4 7 6Xw % e + * J ",
"| pX#Xc d [.y e d H ` ' | hX/ ^ ^ |.7.` | 7.)..X9XfXc.' U ( ,X) H V.) ^ K H %XV.K #.#.P A U X.A Q F.D H e i.4 3 % Q 8 7 R 8 3 7 ",
"5.[. .^ / /.9 a H ^ K e  .l.' V..XM.d K ' B.,X).` .XdX).| G.&Xa H S. .K J U K.d.e P K A P U U P H I.I q 4 S R + 3 R 6.A 7X<.% 4 ",
"> 9 L 8.Q Q.r.] ^ d i H D.i H ) kX(.H ( +._.cXM.^ ^ (.cX+XXXzXa.p..X.X .'.XX%Xf.A H P D P U H A P E.1.5 q 5 } R q e 7.p.E ) r O ",
"i i ) iXr.9 a `.t.i d } 5.d L ' fX).^ K ( 6X,XS.^ L Z.}.K ^ (.8./ ..D.%XdXvXmXD.H U ) P A e A A K v.E.! e U ) 2X9 5 r i.H v.S + ",
"/.) ' sXh.7 7 5.{ K ^ dXl.d d / D.H K ) B.kX).$XS.^ | t.H U S.7.d e *.&X) ' D.fXs.U H.I e e e A A P #.Y.c.+.A I 2.4 5 r *.L + + ",
"BXyX}.8Xt.> i oX7.^ ( VX0.e H U m.H K  .<XnXXXXXXXV.p.D.K $.XXXXa a { V.K ( ' i.@.U p.3XH H 9 q A A K x.+.q D q ;.1.+ + l Q q o ",
"[.m.}.pXN.] ) kX3.^  .:Xh 9 i *.7.d H K '.%X| D.D.fXjX}.' ] 7.fX8.e | a.K #._ #.H U A g.v.P A H H e U z.U 7 9 A U A.F + 4 ) I <.",
"^ K  .4.J XX/.W.d L H S.$X; 9  . .H ) V.8.7.V._ $.|.9X}._ K K ) ,X{ (  ._ ( ' K U X.q o.H.A H H A A P b.*.A H e P H D.* O & K e ",
"L ^ ^.p a  .jX[ 9 e i ( zX^.K )  .' ] s d 7.iX;.`.|.,X:X` H d K XXfXU ' _ ) +.) x.+.( x.2Xe 8 5 7 e e +.R.L H H K q ! f.+ & q 7 ",
"..qXQ.d L ( %Xm 9 r a ( %XmXXX].N.H a 9 a } }.' D.*XMXbXM.K H K @.hXD.K ^ +.$.I.z.+.+.%.5X<.4 5 q 7 e +.x.( P U U H K u.l 4 & 4 ",
"D.iX/.}.N.H D.t.a H d ' /.^./ dXj.9 e e e | p.^ n..XiX,X,X{ H L ' _.lX^ U ( U I.b.K A X.@.6X5.7 q D q K %.#.( +.:.v.4X} =.p.e 4 ",
"8 > 9 W N.d ^ N.] d K ^ 8.| H ).{.7 9 9 a ) { ^ $.V. ..._.XXK @._ B.yX .( ^ X.E.Q e U X.H I 7XF 7 q A ( I.) U ( $.H 4 T '.) ^ ;.",
"# 8 9 T M.K ^ B.8.' ( K 7.) ^ V.tXL i 9 P ^ $.' _ ` ( ` K ;X8.' K  .&X| | =.K 5X-.X.%.( A q =.`.q H ( A P J U P q % % 5 V.Y.P / ",
"& ; 9 E r.d K p.D.) K ) ^.' ) L [.7.d e d K ;.S.| | `  .K | uX}.' S.gXtX&XF.x.7X4X%.+.U A e J 4X{ H q 4 P H H P e & 4 7 U ) +.9 ",
"$ 7 > 5.3.i / D.L { K D.{.^ H a =.D.a 9 9 K V.jXp.^.B.' / H K.NXyXhXjX=X^.Z.Y.E.5XA.P.+.e A A R.F.4 % 7 H H U d U e o J 9 3 U e ",
"$ 7 i ^.z a F.*X^ :X;XVX~.9 H K ^ D.[ 9 A ( ` vXlXyX{ ^ ' ^ (.&X%X%XyX%X..K +.z.&.U #.z.P e q Y 2X4 4 P U #.U a ) W i.T O % J ) ",
"a f %X$X9 d / jX}.3.L vX0.e a ^ -.,XoXd L '  .zXlX&XdX%X7.`.M.' ] U XXtX^ P U P P U U %.U 7 5 4 H.].Y +.P K H P +.*.K.& % % q ` ",
"p a f.yX9 > 8.lXW 7 s ).q.9 K ( | .XmXD.K ;..XD.&X| `.bX<X<XL H d H XXpX( U P e A +.U +.#.e H H H p.b.a 4 4 & 9 $.#.v.8 O 3 7 9 ",
"; ; 8 fXq.^.&X4.f.i t.e i.<X|.D. .` vX[.^ [ d ^ |.r. .D.`.<Xd i a ^ [./.` +.^ e e U b.+.Y.` #.X.q T Q A & 3 % + % q -.:.& % % & ",
"9 i L u.NX~.- 7 ;.iXl 9 H M.tX-X[.%XjX..K d K ` 7.7.) r.9XcX8.Y H / J e A &.z.A A H x.#.X.R.z.K e 8 -.i.& % + % & A P U a 4 4 7 ",
"> 9 ; g.aX& & i ..pXa 9 p d V.-X<XpXjX .d d K ^ ' K ^  .^.CX[.d 9 9 a H K e P #.e A P %.` L H e e H ( 4XG o % 4 7 9 d ) H 8 e 9 ",
"$ $ - &Xj.& a d ) cXx 9 9 L ..M.N./.kX%Xf d d a a L K ' 8XAX7.9 7 d / U q 3 e C.J A J ( q 4 9 q q U +.L D.e & + + % 7 4 7 a w o ",
"# & p -X* 0 d e a.hXB 7 J H (  .| ^ D.dXd i e e H i H | l.ZX!.J H ^ ) 9 4 a u.2X) e H A e 9 5 & 7 H @.7 Q S.% % 7 7 & 7 P V.8 & ",
"= # e.2.- f i L E a 8.*X8.7.7./ K d `.cXr.a H d L 8.5.E P zXnX) H d a 4 I ) A P 8X~ U e 9 A 4 7 4 { =.e A b.{ J 4 % & { ) B.u % ",
"- 1.kXv L d K i ; 9 ] lX$XL d K ( ' 9XgXr.|.N.r.D.E i a H dXtX9 e 9 4 q A 5.-.Z.7XOXP e Y { a q Y *.7 ^ @.+.a 4 # 8 H.0 % *.Z.& ",
"|.$XtX<Xf [ p ; ; 9 ) Q.f e d H ^ /./.d H ^ |.=Xa.f L ] 7.vX,X9 0 ; 4 S E w.G.r 7 3X! A a Y U e U.$.U ) Q P L 9 U L.1.# + * 5X} ",
"9.i 8.*XW.J > ; 9 L 8.Q.[ ] K 7.|.8.d 9 e d M.|.^.D.t.7.8.%XoXe e 9 a Q q 4 4 e z.eXC.a 4 5 $.OXZ.U e & 3 6.8XE.P.r o o % a +X9X",
"{ Q.N.Q.r.i > 4 i f B 9 ).*XM.<X7./ i 9 9 9 f { ^ 8.-X} { (.pXi E a 8 7 7 e H #.#.U U 9 4 q Z.wXC.( 9 q H 5.y 2X& O   + ) 5 q 8X",
"a q.W.h.[ s 9 9 9 s 9 a s [ nX-X] T 7 & - w d K ) 7.<XQ.]  .gXmXt.7 % q H e q q 7 P U H e ( a J 4Xe 9 q e * A _.t.q & 8 4 # 9 L ",
"i E 3.] 9.4.i k t.4.8.z 9 3./.lXB 9 ; 4 7 9 H | ( ^ ).t.e / D.hXW.7 4 A q 4 e q H A U L H e 4 5.K.4 % 8   2 I 9 >.L &   X # 7 H ",
"i a Q.t.w.gXpXpXy.i 8 9 3.g | =XM 7 > ; > 9 p L H K XXW.9 E 8.a.;X4 r 9 % 4 q H d 4 a Y ! q e _.;.a J % O r e 9 9 c.;.H 7 * 9 ^ ",
"$ $ t.yX[.$XmX@Xd > r y.p 3.a 8.*X9 > 9 7 9 s [ e d D.h.7 / 8.*.eX3.q % q 9 | 2XD.V.g.eXJ.H { w W ) % o 9 8 9 e 9 H 7 r e J e H ",
"$ , *XV g 3.nXcXlX:X/.p W <.> Y <Xa 9 7 ; > 9 8.H a ).<.d d $X$X4X6Xq 9 q ;.wX3X2X Xd.I :.' e + ) a   % 7 + e H e 4 X X   & ; a "
};
